<svg xmlns="http://www.w3.org/2000/svg" width="126" height="154" viewBox="0 0 126 154" role="img" aria-labelledby="title"><title id="title">ThemeBay Studio</title><rect x="17" y="3" width="92" height="94" rx="3" fill="#0968e8"/><path d="M44 3h19v64H44z" fill="#fff"/><path d="M63 4c2 15 35 28 35 48 0 14-13 22-35 28V4z" fill="#f4f8ff"/><path d="M17 70c12-8 20 8 32 0s20 8 32 0 18 6 28 1v26H17V70z" fill="#fff"/><path d="M17 76c12-8 20 8 32 0s20 8 32 0 18 6 28 1M17 84c12-8 20 8 32 0s20 8 32 0 18 6 28 1M17 92c12-8 20 8 32 0s20 8 32 0 18 6 28 1" fill="none" stroke="#0968e8" stroke-width="4"/><text x="63" y="122" text-anchor="middle" font-family="Arial,sans-serif" font-size="24" font-weight="700" fill="#10131d">thembay</text><text x="63" y="148" text-anchor="middle" font-family="Arial,sans-serif" font-size="24" font-weight="700" fill="#10131d">studio</text></svg>